<svg width="546" height="182" viewBox="0 0 546 182" fill="none" xmlns="http://www.w3.org/2000/svg">
<path d="M43.7698 39.8219C43.7723 42.5158 43.3871 45.1959 42.6261 47.7786C53.9763 41.6319 66.4694 37.92 79.3167 36.8775C73.729 29.9952 66.6894 24.4507 58.7085 20.6461C50.7275 16.8416 42.0052 14.8723 33.1742 14.8812C31.7136 14.8812 30.2663 14.9336 28.8323 15.0384C33.3368 17.3986 37.1116 20.9575 39.7454 25.3274C42.3793 29.6974 43.7713 34.7109 43.7698 39.8219Z" fill="white"/>
<path d="M147.033 60.5301C134.605 49.2869 119.411 41.6002 103.032 38.2695C100.272 37.7074 97.4695 37.2713 94.6236 36.9612C93.1718 36.8006 91.7079 36.6746 90.2318 36.5831C88.2924 36.4627 86.3386 36.4025 84.3704 36.4025H83.2467C80.8763 36.5062 78.6155 36.6133 76.4046 36.7772L76.2683 36.5664C63.5805 37.652 51.2479 41.3402 40.0299 47.404L39.9701 47.6148C39.8404 48.0531 39.7008 48.4881 39.5512 48.9163C35.2109 53.2752 31.7687 58.4538 29.4222 64.1549C27.0756 69.856 25.8708 75.9674 25.877 82.1383C25.877 83.2068 25.9113 84.2652 25.98 85.3136C26.2301 89.0902 26.9334 92.8224 28.0745 96.4289C28.4469 97.6 28.8625 98.7499 29.3213 99.8786C31.1871 104.48 33.7682 108.754 36.9679 112.54C38.8437 116.588 41.6812 120.109 45.2296 122.792C45.7837 126.017 46.4054 129.22 47.0947 132.401C49.885 145.327 53.7724 157.988 58.7143 170.244C60.2126 173.969 61.8051 177.65 63.4918 181.286C63.4187 179.86 63.3588 178.432 63.3123 177C63.3123 176.936 63.3123 176.876 63.3123 176.812C59.7073 163.557 60.1585 149.516 64.607 136.524C69.0554 123.531 77.2941 112.191 88.247 103.984C82.5721 107.938 76.379 111.08 69.8452 113.319C68.0366 113.942 66.198 114.499 64.3296 114.992C64.3296 114.992 59.5588 116.551 55.9815 116.642C53.0643 116.592 50.2492 115.553 47.9914 113.693C45.7335 111.834 44.1648 109.262 43.5389 106.394C42.913 103.526 43.2665 100.529 44.5422 97.8887C45.8179 95.248 47.9412 93.1175 50.569 91.8416L50.7385 91.7646L50.958 91.6643L51.1973 91.5572C55.2078 89.7924 59.4728 88.6843 63.8309 88.2748C64.2299 88.2748 64.6321 88.2748 65.0311 88.2748C66.0285 88.2748 67.0525 88.2748 68.0565 88.325C70.8691 88.4209 73.6397 88.644 76.3681 88.9942C78.8416 89.4057 85.6803 90.6438 87.8613 91.2393C89.6466 91.7111 93.4234 92.4606 96.6815 93.528L98.3039 94.0298C104.87 95.9069 111.041 95.6459 115.173 93.3239C116.234 92.4974 117.264 91.6208 118.265 90.714C118.59 90.3044 118.878 89.8666 119.126 89.4057C120.519 86.826 120.596 83.7511 119.582 80.5657C119.552 80.4653 119.582 80.4252 119.582 80.4252C120.007 79.833 123.943 79.4214 125.509 78.9664C130.411 78.1434 135.053 76.18 139.068 73.2326C143.082 70.2851 146.357 66.4351 148.632 61.989L147.033 60.5301Z" fill="url(#paint0_linear_24_437)"/>
<path opacity="0.13" d="M113.87 67.3023C108.045 64.7125 102.233 62.019 95.9697 60.7174C89.5366 59.379 82.7477 59.9211 76.3046 60.9583C70.3402 61.922 64.6883 63.6886 59.0498 65.8267C56.9235 66.6021 54.8462 67.5071 52.8294 68.5369C51.9021 69.0067 51.0079 69.54 50.1531 70.133V83.7309H114.438V67.5566L113.87 67.3023Z" fill="white"/>
<path d="M44.6277 122.31C44.8272 122.47 45.0266 122.644 45.2294 122.782C45.7835 126.007 46.4052 129.21 47.0946 132.391C49.8848 145.317 53.7722 157.978 58.7141 170.234C60.2124 173.959 61.8049 177.64 63.4916 181.276C63.4185 179.85 63.3586 178.421 63.3121 176.989C63.3121 176.926 63.3121 176.866 63.3121 176.802C60.8266 167.656 60.2581 158.09 61.6426 148.712C63.0271 139.333 66.3344 130.347 71.3543 122.323L44.6277 122.31Z" fill="url(#paint1_linear_24_437)"/>
<path d="M115.116 93.3674C116.223 92.5075 117.297 91.5907 118.338 90.6471C118.642 90.2564 118.913 89.8412 119.149 89.4057C120.536 86.8361 120.619 83.7712 119.611 80.5958V80.5657L119.635 80.3884C119.967 80.0538 121.483 79.756 122.959 79.4883C121.167 79.6155 118.97 79.746 117.49 79.746C105.045 79.7686 92.8095 76.5257 81.9898 70.3372L80.8129 69.5642C74.8235 66.3438 67.9747 65.1149 61.2485 66.0538C54.5223 66.9927 48.2643 70.0512 43.3719 74.7907C38.4796 79.5302 35.2042 85.7071 34.0154 92.4358C32.8267 99.1644 33.7858 106.099 36.755 112.245C36.8315 112.342 36.9112 112.436 36.991 112.53C37.7285 114.12 38.6194 115.634 39.6507 117.05C41.2289 119.23 43.1202 121.161 45.2627 122.782L45.3225 123.116C51.0571 127.848 58.2468 130.429 65.6626 130.417C66.1546 130.417 66.66 130.417 67.1288 130.38C67.4612 129.638 67.7538 129.042 67.8402 128.855C68.0264 128.48 68.4619 127.623 68.6514 127.238C73.3904 118.162 80.0937 110.272 88.2667 104.151L88.2867 103.941C82.6112 107.896 76.4168 111.038 69.8815 113.276C68.0774 113.898 66.2389 114.456 64.366 114.949C64.366 114.949 59.5985 116.508 56.0212 116.598C53.1038 116.549 50.2882 115.511 48.0298 113.651C45.7714 111.792 44.2021 109.22 43.5758 106.352C42.9494 103.484 43.3027 100.487 44.5783 97.846C45.8539 95.205 47.9774 93.0742 50.6054 91.7981L50.7783 91.7211L50.9977 91.6208L51.2371 91.5137C55.2474 89.7486 59.5125 88.6405 63.8706 88.2313H65.0675C66.0826 88.2313 67.0922 88.2481 68.0962 88.2815C70.9089 88.3774 73.6849 88.6005 76.4244 88.9507C78.9012 89.3623 85.6802 90.6438 87.8844 91.2393L88.5493 91.4066C90.5009 91.8818 93.8056 92.5811 96.698 93.528L98.3237 94.0299C104.85 95.8969 110.984 95.6627 115.116 93.3674Z" fill="url(#paint2_linear_24_437)"/>
<path opacity="0.53" d="M115.116 93.3674C116.223 92.5075 117.297 91.5907 118.338 90.6471C118.642 90.2564 118.913 89.8412 119.149 89.4057C120.536 86.8361 120.619 83.7712 119.611 80.5958V80.5657L119.635 80.3884C119.967 80.0538 121.483 79.756 122.959 79.4883C121.167 79.6155 118.97 79.746 117.49 79.746C105.045 79.7686 92.8095 76.5257 81.9898 70.3372L80.8129 69.5642C74.8235 66.3438 67.9747 65.1149 61.2485 66.0538C54.5223 66.9927 48.2643 70.0512 43.3719 74.7907C38.4796 79.5302 35.2042 85.7071 34.0154 92.4358C32.8267 99.1644 33.7858 106.099 36.755 112.245C36.8315 112.342 36.9112 112.436 36.991 112.53C37.7285 114.12 38.6194 115.634 39.6507 117.05C41.2289 119.23 43.1202 121.161 45.2627 122.782L45.3225 123.116C51.0571 127.848 58.2468 130.429 65.6626 130.417C66.1546 130.417 66.66 130.417 67.1288 130.38C67.4612 129.638 67.7538 129.042 67.8402 128.855C68.0264 128.48 68.4619 127.623 68.6514 127.238C73.3904 118.162 80.0937 110.272 88.2667 104.151L88.2867 103.941C82.6112 107.896 76.4168 111.038 69.8815 113.276C68.0774 113.898 66.2389 114.456 64.366 114.949C64.366 114.949 59.5985 116.508 56.0212 116.598C53.1038 116.549 50.2882 115.511 48.0298 113.651C45.7714 111.792 44.2021 109.22 43.5758 106.352C42.9494 103.484 43.3027 100.487 44.5783 97.846C45.8539 95.205 47.9774 93.0742 50.6054 91.7981L50.7783 91.7211L50.9977 91.6208L51.2371 91.5137C55.2474 89.7486 59.5125 88.6405 63.8706 88.2313H65.0675C66.0826 88.2313 67.0922 88.2481 68.0962 88.2815C70.9089 88.3774 73.6849 88.6005 76.4244 88.9507C78.9012 89.3623 85.6802 90.6438 87.8844 91.2393L88.5493 91.4066C90.5009 91.8818 93.8056 92.5811 96.698 93.528L98.3237 94.0299C104.85 95.8969 110.984 95.6627 115.116 93.3674Z" fill="url(#paint3_radial_24_437)"/>
<path d="M153.975 84.989C155.371 86.1334 157.459 86.5349 157.845 85.8088C158.509 84.5608 157.246 83.8849 157.246 83.8849C141.793 72.9187 123.195 67.3503 104.298 68.0318C104.298 68.0318 101.638 68.0083 102.16 69.4069C102.682 70.8055 111.868 71.7123 111.868 71.7123C111.868 71.7123 123.774 71.8194 132.813 74.6367C141.853 77.454 150.913 82.4796 153.975 84.989Z" fill="#CCCCCC"/>
<path d="M156.495 86.1234C141.039 75.1558 122.439 69.5873 103.54 70.2702C111.397 71.7457 119.13 73.8274 126.669 76.4971C128.265 77.0592 129.846 77.647 131.41 78.2604" fill="url(#paint4_linear_24_437)"/>
<path d="M40.9536 39.8219C40.9529 42.5163 40.5643 45.1964 39.8 47.7786C51.1501 41.6319 63.6432 37.92 76.4905 36.8775C70.9039 29.9965 63.8659 24.4528 55.8868 20.6483C47.9077 16.8438 39.1873 14.8738 30.358 14.8812C29.6288 14.8812 28.9063 14.8945 28.1904 14.9213C28.0521 14.9224 27.9179 14.9686 27.8079 15.053C27.698 15.1375 27.6183 15.2556 27.5808 15.3895C27.5433 15.5235 27.5501 15.6661 27.6 15.7959C27.65 15.9256 27.7405 16.0356 27.8579 16.1091C31.8642 18.6147 35.1694 22.1072 37.4609 26.2565C39.7524 30.4058 40.9545 35.0748 40.9536 39.8219Z" fill="url(#paint5_linear_24_437)"/>
<path d="M89.2939 74.0578C91.4549 74.9746 93.6647 75.7876 95.9232 76.497C102.846 78.6572 110.053 79.7525 117.301 79.7459C117.673 79.7459 118.095 79.7459 118.544 79.7225C121.972 81.9843 118.773 85.6883 116.685 87.4182C108.63 93.0594 95.1087 88.6896 87.8975 82.7338C87.8975 82.7338 84.2837 79.3009 86.3848 76.1289C87.1091 75.1428 88.1288 74.4168 89.2939 74.0578Z" fill="url(#paint6_linear_24_437)"/>
<path opacity="0.63" d="M89.9189 82.4026L94.191 79.756L96.4983 85.9226L101.11 82.416L103.666 87.9669L108.341 83.2826L111.998 87.4216L115.386 81.0642L117.553 83.0718C117.553 83.0718 117.463 80.3616 118.477 79.766C118.763 79.5987 119.408 80.4352 119.651 80.7865C121.054 83.0149 118.467 85.9259 116.689 87.3948C108.633 93.0361 95.112 88.6662 87.9008 82.7104C87.9008 82.7104 85.0716 80.0337 85.8795 77.203L89.0179 76.8115L89.9189 82.4026Z" fill="white"/>
<g opacity="0.63">
<path d="M95.9431 76.5003C101.876 78.3523 108.022 79.4208 114.229 79.679L111.991 83.8681L108.334 79.7292L103.66 84.4135L101.103 78.8593L96.4917 82.3658L94.1844 76.1992L89.9122 78.8459L89.1177 73.9675C91.343 74.9222 93.6181 75.7665 95.9431 76.5003Z" fill="white"/>
</g>
<path d="M102.376 58.3787C101.389 56.1397 99.9444 54.1345 98.1375 52.4929C96.3305 50.8513 94.2011 49.6101 91.8872 48.8495" fill="url(#paint7_linear_24_437)"/>
<path opacity="0.25" d="M147.033 60.5301C142.075 56.0545 136.658 52.121 130.875 48.7958C131.723 49.552 138.831 55.5279 139.057 58.4991C139.283 61.4703 112.158 56.6655 96.1994 62.8489C80.2412 69.0322 140.537 70.4709 140.158 71.4413C139.955 71.9528 139.72 72.4512 139.456 72.9336C143.291 70.0238 146.425 66.2818 148.625 61.9856L147.033 60.5301Z" fill="white"/>
<path d="M96.1727 76.5002C91.2577 74.9623 86.5216 72.896 82.0464 70.337C87.9059 64.9873 95.5356 62.0265 103.447 62.0323C103.703 62.0323 103.959 62.0323 104.212 62.0323C105.843 62.0845 107.462 62.3385 109.032 62.7885C110.945 63.3216 112.888 63.7678 114.86 64.1269C126.031 66.2181 137.533 65.637 148.439 62.4305C146.14 66.7641 142.883 70.5086 138.919 73.3755C134.955 76.2424 130.39 78.1551 125.576 78.9662C124.964 79.1402 123.997 79.3008 123.012 79.4882C121.22 79.6153 119.023 79.7458 117.543 79.7458C110.298 79.7535 103.093 78.6593 96.1727 76.5002Z" fill="url(#paint8_linear_24_437)"/>
<path opacity="0.51" d="M88.5226 71.4546C91.3545 72.3546 94.242 73.0665 97.1666 73.586C106.721 75.2557 116.501 75.1081 126.001 73.151C133.614 71.5951 140.962 68.7477 147.375 64.3512C147.761 63.7322 148.123 63.0998 148.469 62.454C137.563 65.6605 126.06 66.2416 114.89 64.1504C112.92 63.7823 110.977 63.3362 109.062 62.812C107.492 62.362 105.873 62.108 104.241 62.0558C103.989 62.0558 103.733 62.0558 103.477 62.0558C96.0763 62.0511 88.9054 64.6409 83.1965 69.3801C84.7957 70.3538 86.7805 70.9025 88.5226 71.4546Z" fill="url(#paint9_radial_24_437)"/>
<path opacity="0.4" d="M114.009 77.1194C108.169 76.862 102.366 76.0407 96.6813 74.6668C93.9385 74.021 91.2256 73.2648 88.5493 72.3714C86.478 71.6788 84.4267 70.9059 82.668 69.5909C82.3821 69.8352 82.0962 70.0828 81.8169 70.3371C92.6365 76.5257 104.872 79.7686 117.317 79.7459C118.797 79.7459 120.994 79.6154 122.79 79.4883C123.787 79.3109 124.738 79.1537 125.35 78.9663C129.095 78.3424 132.699 77.0458 135.988 75.1385C128.777 76.7469 121.39 77.4126 114.009 77.1194Z" fill="url(#paint10_linear_24_437)"/>
<path opacity="0.36" d="M108.168 93.655C101.622 93.1163 95.5345 90.7742 89.3773 88.6361C82.6615 86.2939 75.8028 84.0321 68.6682 83.5235C62.7736 83.1052 56.367 83.7075 51.2438 86.9364C48.8356 88.4552 46.866 90.584 45.5321 93.1096C44.5114 95.0436 43.6869 97.3791 43.8399 99.6175C44.3778 97.9251 45.252 96.3604 46.4093 95.0185C47.5666 93.6766 48.983 92.5855 50.5722 91.8114L50.7451 91.7345L50.9645 91.6341L51.2039 91.527C55.2142 89.7619 59.4793 88.6538 63.8375 88.2446H65.0344C66.0495 88.2446 67.0591 88.2614 68.0631 88.2948C70.8757 88.3907 73.6518 88.6138 76.3913 88.964C78.8681 89.3756 85.6803 90.6437 87.8845 91.2393L88.5494 91.4066C90.501 91.8817 93.8057 92.581 96.6981 93.5279L98.3238 94.0298C104.784 95.8768 110.868 95.6526 114.997 93.4309C112.736 93.7672 110.445 93.8424 108.168 93.655Z" fill="url(#paint11_linear_24_437)"/>
<path opacity="0.43" d="M99.0449 83.9885L96.4982 85.9225L95.3213 82.8041C94.1549 82.3453 93.0303 81.7856 91.9601 81.1311L89.9088 82.4025L89.3802 79.157C88.7004 78.5146 88.0959 77.7961 87.5782 77.0156L86.4512 77.1561C86.7238 80.6091 89.5231 82.9145 92.3956 84.3934C95.7568 86.1233 99.6931 87.2073 103.417 87.7594L103.566 87.7795L102.1 84.5941C101.119 84.4436 100.085 84.2462 99.0449 83.9885Z" fill="white"/>
<path opacity="0.43" d="M106.791 84.835L103.823 87.8129C106.527 88.2132 109.285 88.0515 111.925 87.3378L109.484 84.574C108.592 84.7092 107.693 84.7963 106.791 84.835Z" fill="white"/>
<g opacity="0.18">
<path d="M91.9269 77.2899L92.2228 77.4237L94.191 76.2058L95.092 78.6149C95.4909 78.7654 95.8899 78.9093 96.2955 79.0498C97.3771 79.4179 98.4709 79.7458 99.5769 80.0335L101.11 78.8658L101.897 80.5723C103.161 80.8366 104.438 81.0474 105.717 81.2046L106.748 81.3284L108.341 79.7291L110.023 81.6329C111.047 81.7099 112.074 81.7634 113.101 81.7868L114.229 79.6789C108.022 79.4206 101.876 78.3522 95.9431 76.5002C93.6181 75.7708 91.3451 74.9287 89.1243 73.974L89.4168 75.7541C90.0552 76.4969 91.0525 76.8917 91.9269 77.2899Z" fill="url(#paint12_linear_24_437)"/>
<path d="M104.574 83.3527C104.068 83.2824 103.576 83.2021 103.068 83.1185L103.666 84.4201L104.713 83.3694L104.574 83.3527Z" fill="url(#paint13_linear_24_437)"/>
<path d="M96.136 81.4054L96.4984 82.3724L97.2896 81.7701C96.904 81.653 96.5183 81.5326 96.136 81.4054Z" fill="url(#paint14_linear_24_437)"/>
</g>
<path opacity="0.36" d="M55.7253 82.948C54.3389 82.4662 52.8727 81.9442 51.7623 80.9906H31.9143V87.1238C34.9996 90.6905 41.1933 91.0921 45.3524 89.6065C48.1684 88.6027 50.6718 86.846 53.3083 85.4374L56.992 83.4466V83.3395C56.5664 83.2056 56.1442 83.0818 55.7253 82.948Z" fill="url(#paint15_linear_24_437)"/>
<path opacity="0.15" d="M59.492 39.8722C59.6051 36.4559 57.6668 33.6018 55.17 31.3634C52.1515 28.7175 48.667 26.6645 44.8969 25.3106C42.0178 24.2466 38.8561 23.4402 35.7476 23.5439C38.2106 27.0069 39.8559 30.99 40.5582 35.1897C41.2605 39.3894 41.0013 43.695 39.8003 47.7787C46.0447 44.3994 52.6512 41.7468 59.492 39.8722Z" fill="url(#paint16_linear_24_437)"/>
<path d="M75.8921 112.195C68.3087 115.615 60.1866 117.375 51.9216 118.01C43.7696 117.913 39.4742 110.224 38.5233 107.36C38.3128 106.72 38.1266 106.088 37.9648 105.463C37.597 104.412 37.2895 103.341 37.0439 102.254C36.1197 98.3633 35.7835 94.3544 36.0465 90.3627C36.2074 87.8981 36.5161 85.4455 36.9707 83.0183C34.6251 87.5137 33.3623 92.501 33.2844 97.5779C33.2064 102.655 34.3154 107.679 36.5219 112.245L36.758 112.53C37.4967 114.12 38.3875 115.634 39.4177 117.05L39.6072 117.301C40.184 118.077 40.801 118.822 41.4556 119.533L41.4756 119.556C41.685 119.78 41.8978 120.004 42.1139 120.225L42.2004 120.306C42.3965 120.506 42.596 120.7 42.8021 120.895L42.985 121.062C43.1612 121.222 43.3374 121.396 43.5169 121.544C43.6266 121.644 43.743 121.738 43.8494 121.835C43.9558 121.932 44.112 122.062 44.2483 122.169C44.501 122.377 44.7603 122.578 45.0197 122.775L45.0795 123.11C50.8144 127.841 58.0039 130.422 65.4196 130.41C65.9116 130.41 66.4003 130.41 66.889 130.374C67.2215 129.631 67.5107 129.035 67.5972 128.848L67.657 128.724L67.7302 128.584L67.7501 128.543C67.8399 128.363 67.943 128.155 68.046 127.954L68.4117 127.232C72.1447 120.08 77.1063 113.651 83.0667 108.24C80.7819 109.746 78.383 111.068 75.8921 112.195Z" fill="url(#paint17_linear_24_437)"/>
<path d="M63.3117 176.969C63.3117 176.906 63.3117 176.845 63.3117 176.782C59.1783 161.559 60.395 145.367 66.756 130.942C59.6912 129.457 53.2015 125.776 47.7059 121.092C41.8413 116.103 36.8377 109.782 33.6926 102.706C30.1718 94.7826 29.0382 85.7251 29.2942 77.1092C29.4219 70.8797 30.3551 64.6935 32.0702 58.7065C31.5416 59.63 31.0396 60.5769 30.5741 61.5405C27.4701 67.9462 25.8621 74.9813 25.8731 82.1081C25.8731 83.1766 25.9075 84.235 25.9762 85.2834C26.2263 89.06 26.9295 92.7922 28.0707 96.3987C28.443 97.5698 28.8586 98.7197 29.3174 99.8484C31.1832 104.45 33.7643 108.724 36.964 112.509C38.8398 116.558 41.6773 120.079 45.2258 122.761C45.7799 125.987 46.4016 129.19 47.0909 132.371C49.8811 145.297 53.7685 157.957 58.7104 170.214C60.2087 173.939 61.8012 177.62 63.4879 181.255C63.4148 179.83 63.3549 178.401 63.3084 176.969H63.3117Z" fill="url(#paint18_linear_24_437)"/>
<path d="M54.259 82.0914C55.9446 81.4523 58.0524 81.7568 58.1854 82.5531C58.4148 83.9484 57.0085 84.1859 57.0085 84.1859C38.8853 89.6195 19.4924 88.9284 1.79644 82.2185C1.79644 82.2185 -0.720294 81.3921 0.203952 80.231C1.1282 79.07 10.1379 81.1612 10.1379 81.1612C10.1379 81.1612 21.4416 84.8785 30.9268 85.1127C40.412 85.347 50.562 83.4833 54.259 82.0914Z" fill="#CCCCCC"/>
<path d="M56.3067 81.4357C48.7831 77.3068 30.7403 81.2283 30.7403 81.2283C29.0647 81.3064 27.3814 81.3565 25.6902 81.3789C17.6985 81.4906 9.71008 80.9816 1.79614 79.8564C19.4921 86.5664 38.885 87.2574 57.0082 81.8239L56.3067 81.4357Z" fill="url(#paint19_linear_24_437)"/>
<path d="M100.575 56.3677C99.7464 57.1594 98.6529 57.609 97.5108 57.6274C96.3688 57.6458 95.2615 57.2317 94.4085 56.4672C93.5555 55.7026 93.0191 54.6434 92.9056 53.4995C92.7921 52.3557 93.1098 51.2106 93.7957 50.2914C96.5494 51.6781 98.8885 53.7747 100.575 56.3677Z" fill="#CCCCCC"/>
<path d="M99.9759 55.568C99.5643 55.8824 99.0508 56.0305 98.5363 55.9834C98.0218 55.9363 97.5433 55.6974 97.1948 55.3136C96.8463 54.9297 96.6529 54.4287 96.6526 53.9087C96.6523 53.3887 96.8451 52.8874 97.1931 52.5031C98.3722 53.2609 99.332 54.318 99.9759 55.568Z" fill="#3B2B29"/>
<path opacity="0.43" d="M119.701 80.4519C119.084 80.8888 118.445 81.2921 117.786 81.6598C117.738 82.0762 117.718 82.4954 117.726 82.9146L116.888 82.135C116.047 82.5568 115.181 82.9266 114.295 83.2425L112.217 87.1372C113.369 86.7963 114.477 86.3202 115.518 85.7185C117.301 84.6636 118.889 83.305 120.209 81.7033C120.164 81.3218 120.034 80.9557 119.827 80.6326C119.794 80.5724 119.751 80.5155 119.701 80.4519Z" fill="white"/>
<path opacity="0.11" d="M102.739 57.9202C102.073 56.4597 101.295 55.0535 100.412 53.7143C99.1308 51.7963 97.6025 50.0579 95.8669 48.5448C94.3309 47.2064 92.13 45.5703 89.9624 45.9584C89.068 46.554 89.4105 47.5812 91.8973 48.8493C97.0139 50.539 100.209 53.992 102.386 58.3786C102.403 58.4333 102.423 58.487 102.446 58.5392H102.5L102.716 58.3384C102.716 58.1879 102.726 58.0607 102.739 57.9202Z" fill="white"/>
<path d="M126.872 0.13559H40.1427C25.6519 0.13559 13.9048 11.9581 13.9048 26.5419V113.828C13.9048 128.412 25.6519 140.234 40.1427 140.234H126.872C141.363 140.234 153.11 128.412 153.11 113.828V26.5419C153.11 11.9581 141.363 0.13559 126.872 0.13559Z" fill="url(#paint20_radial_24_437)"/>
<path d="M89.4718 80.3314H89.3604" stroke="#616160" stroke-linecap="round" stroke-linejoin="round"/>
<path d="M89.4718 80.3314H89.3604" stroke="#616160" stroke-linecap="round" stroke-linejoin="round"/>
<path d="M132.497 96.7936C132.499 108.287 127.967 119.311 119.897 127.443C111.828 135.575 100.88 140.151 89.4601 140.164V140.499H40.4385C36.9397 140.499 33.4752 139.806 30.2427 138.459C27.0101 137.111 24.0729 135.137 21.5988 132.647C19.1247 130.157 17.1621 127.201 15.8231 123.948C14.4841 120.695 13.7949 117.209 13.7949 113.687V26.4583C13.7958 19.5439 16.5254 12.913 21.3834 8.02382C26.2415 3.13462 32.8301 0.387504 39.7004 0.386617H54.3288C55.2763 0.32639 56.2304 0.289581 57.1913 0.289581C63.7658 0.294066 70.2523 1.81176 76.1545 4.72657C82.0568 7.64138 87.2185 11.8761 91.2449 17.1068C95.2713 22.3376 98.0557 28.4258 99.3851 34.9059C100.715 41.3859 100.554 48.0861 98.9153 54.4941C108.45 56.6668 116.967 62.037 123.069 69.7233C129.171 77.4095 132.496 86.9552 132.497 96.7936Z" fill="url(#paint21_linear_24_437)"/>
<path d="M73.5451 43.7334C73.5451 48.1167 71.8158 52.3206 68.7374 55.4212C65.659 58.5219 61.4833 60.2656 57.1281 60.2692V60.0885H40.6545V27.191H57.1281H57.2378C61.5752 27.2237 65.7237 28.9812 68.7787 32.0802C71.8336 35.1791 73.5469 39.3681 73.5451 43.7334Z" stroke="#616160" stroke-linecap="round" stroke-linejoin="round"/>
<path d="M89.4071 70.1096H89.3606H61.5368C68.1309 69.0234 74.0765 65.4772 78.1894 60.1774C82.3024 54.8777 84.2808 48.2132 83.7308 41.5113C83.1807 34.8094 80.1424 28.562 75.2212 24.0132C70.2999 19.4645 63.8567 16.9483 57.1749 16.9658H57.1283H30.3518V112.55C30.3518 113.984 30.6325 115.404 31.1779 116.729C31.7233 118.053 32.5226 119.257 33.5304 120.271C34.5381 121.285 35.7344 122.089 37.0509 122.637C38.3675 123.186 39.7785 123.468 41.2034 123.468H86.7507C87.6174 123.554 88.4973 123.598 89.3905 123.598C96.4383 123.598 103.197 120.78 108.181 115.765C113.165 110.749 115.964 103.947 115.964 96.8538C115.964 89.7608 113.165 82.9583 108.181 77.9428C103.197 72.9273 96.4383 70.1096 89.3905 70.1096H89.4071Z" fill="url(#paint22_radial_24_437)"/>
<path d="M105.777 96.8772C105.777 101.26 104.048 105.464 100.97 108.565C97.8913 111.666 93.7156 113.409 89.3603 113.413V113.232H40.6545V80.3314H89.3603H89.47C93.8083 80.3632 97.9578 82.1209 101.013 85.2208C104.068 88.3206 105.781 92.511 105.777 96.8772Z" fill="url(#paint23_radial_24_437)"/>
<path d="M57.2378 27.1977H40.6545V60.3226L57.1148 60.2724C61.4724 60.2871 65.6572 58.559 68.7488 55.4683C71.8404 52.3776 73.5854 48.1775 73.5999 43.7919C73.6145 39.4064 71.8974 35.1946 68.8264 32.0832C65.7554 28.9718 61.5821 27.2157 57.2245 27.201L57.2378 27.1977Z" fill="url(#paint24_radial_24_437)"/>
<path d="M43.7698 39.8219C43.7723 42.5158 43.3871 45.1959 42.6261 47.7786C53.9763 41.6319 66.4694 37.92 79.3167 36.8775C73.729 29.9952 66.6894 24.4507 58.7085 20.6461C50.7275 16.8416 42.0052 14.8723 33.1742 14.8812C31.7136 14.8812 30.2663 14.9336 28.8323 15.0384C33.3368 17.3986 37.1116 20.9575 39.7454 25.3274C42.3793 29.6974 43.7713 34.7109 43.7698 39.8219Z" fill="white"/>
<path d="M147.033 60.5301C134.605 49.2869 119.411 41.6002 103.032 38.2695C100.272 37.7074 97.4695 37.2713 94.6236 36.9612C93.1718 36.8006 91.7079 36.6746 90.2318 36.5831C88.2924 36.4627 86.3386 36.4025 84.3704 36.4025H83.2467C80.8763 36.5062 78.6155 36.6133 76.4046 36.7772L76.2683 36.5664C63.5805 37.652 51.2479 41.3402 40.0299 47.404L39.9701 47.6148C39.8404 48.0531 39.7008 48.4881 39.5512 48.9163C35.2109 53.2752 31.7687 58.4538 29.4222 64.1549C27.0756 69.856 25.8708 75.9674 25.877 82.1383C25.877 83.2068 25.9113 84.2652 25.98 85.3136C26.2301 89.0902 26.9334 92.8224 28.0745 96.4289C28.4469 97.6 28.8625 98.7499 29.3213 99.8786C31.1871 104.48 33.7682 108.754 36.9679 112.54C38.8437 116.588 41.6812 120.109 45.2296 122.792C45.7837 126.017 46.4054 129.22 47.0947 132.401C49.885 145.327 53.7724 157.988 58.7143 170.244C60.2126 173.969 61.8051 177.65 63.4918 181.286C63.4187 179.86 63.3588 178.432 63.3123 177C63.3123 176.936 63.3123 176.876 63.3123 176.812C59.7073 163.557 60.1585 149.516 64.607 136.524C69.0554 123.531 77.2941 112.191 88.247 103.984C82.5721 107.938 76.379 111.08 69.8452 113.319C68.0366 113.942 66.198 114.499 64.3296 114.992C64.3296 114.992 59.5588 116.551 55.9815 116.642C53.0643 116.592 50.2492 115.553 47.9914 113.693C45.7335 111.834 44.1648 109.262 43.5389 106.394C42.913 103.526 43.2665 100.529 44.5422 97.8887C45.8179 95.248 47.9412 93.1175 50.569 91.8416L50.7385 91.7646L50.958 91.6643L51.1973 91.5572C55.2078 89.7924 59.4728 88.6843 63.8309 88.2748C64.2299 88.2748 64.6321 88.2748 65.0311 88.2748C66.0285 88.2748 67.0525 88.2748 68.0565 88.325C70.8691 88.4209 73.6397 88.644 76.3681 88.9942C78.8416 89.4057 85.6803 90.6438 87.8613 91.2393C89.6466 91.7111 93.4234 92.4606 96.6815 93.528L98.3039 94.0298C104.87 95.9069 111.041 95.6459 115.173 93.3239C116.234 92.4974 117.264 91.6208 118.265 90.714C118.59 90.3044 118.878 89.8666 119.126 89.4057C120.519 86.826 120.596 83.7511 119.582 80.5657C119.552 80.4653 119.582 80.4252 119.582 80.4252C120.007 79.833 123.943 79.4214 125.509 78.9664C130.411 78.1434 135.053 76.18 139.068 73.2326C143.082 70.2851 146.357 66.4351 148.632 61.989L147.033 60.5301Z" fill="url(#paint25_linear_24_437)"/>
<path opacity="0.13" d="M113.87 67.3023C108.045 64.7125 102.233 62.019 95.9697 60.7174C89.5366 59.379 82.7477 59.9211 76.3046 60.9583C70.3402 61.922 64.6883 63.6886 59.0498 65.8267C56.9235 66.6021 54.8462 67.5071 52.8294 68.5369C51.9021 69.0067 51.0079 69.54 50.1531 70.133V83.7309H114.438V67.5566L113.87 67.3023Z" fill="white"/>
<path d="M44.6277 122.31C44.8272 122.47 45.0266 122.644 45.2294 122.782C45.7835 126.007 46.4052 129.21 47.0946 132.391C49.8848 145.317 53.7722 157.978 58.7141 170.234C60.2124 173.959 61.8049 177.64 63.4916 181.276C63.4185 179.85 63.3586 178.421 63.3121 176.989C63.3121 176.926 63.3121 176.866 63.3121 176.802C60.8266 167.656 60.2581 158.09 61.6426 148.712C63.0271 139.333 66.3344 130.347 71.3543 122.323L44.6277 122.31Z" fill="url(#paint26_linear_24_437)"/>
<path d="M115.116 93.3674C116.223 92.5075 117.297 91.5907 118.338 90.6471C118.642 90.2564 118.913 89.8412 119.149 89.4057C120.536 86.8361 120.619 83.7712 119.611 80.5958V80.5657L119.635 80.3884C119.967 80.0538 121.483 79.756 122.959 79.4883C121.167 79.6155 118.97 79.746 117.49 79.746C105.045 79.7686 92.8095 76.5257 81.9898 70.3372L80.8129 69.5642C74.8235 66.3438 67.9747 65.1149 61.2485 66.0538C54.5223 66.9927 48.2643 70.0512 43.3719 74.7907C38.4796 79.5302 35.2042 85.7071 34.0154 92.4358C32.8267 99.1644 33.7858 106.099 36.755 112.245C36.8315 112.342 36.9112 112.436 36.991 112.53C37.7285 114.12 38.6194 115.634 39.6507 117.05C41.2289 119.23 43.1202 121.161 45.2627 122.782L45.3225 123.116C51.0571 127.848 58.2468 130.429 65.6626 130.417C66.1546 130.417 66.66 130.417 67.1288 130.38C67.4612 129.638 67.7538 129.042 67.8402 128.855C68.0264 128.48 68.4619 127.623 68.6514 127.238C73.3904 118.162 80.0937 110.272 88.2667 104.151L88.2867 103.941C82.6112 107.896 76.4168 111.038 69.8815 113.276C68.0774 113.898 66.2389 114.456 64.366 114.949C64.366 114.949 59.5985 116.508 56.0212 116.598C53.1038 116.549 50.2882 115.511 48.0298 113.651C45.7714 111.792 44.2021 109.22 43.5758 106.352C42.9494 103.484 43.3027 100.487 44.5783 97.846C45.8539 95.205 47.9774 93.0742 50.6054 91.7981L50.7783 91.7211L50.9977 91.6208L51.2371 91.5137C55.2474 89.7486 59.5125 88.6405 63.8706 88.2313H65.0675C66.0826 88.2313 67.0922 88.2481 68.0962 88.2815C70.9089 88.3774 73.6849 88.6005 76.4244 88.9507C78.9012 89.3623 85.6802 90.6438 87.8844 91.2393L88.5493 91.4066C90.5009 91.8818 93.8056 92.5811 96.698 93.528L98.3237 94.0299C104.85 95.8969 110.984 95.6627 115.116 93.3674Z" fill="url(#paint27_linear_24_437)"/>
<path opacity="0.53" d="M115.116 93.3674C116.223 92.5075 117.297 91.5907 118.338 90.6471C118.642 90.2564 118.913 89.8412 119.149 89.4057C120.536 86.8361 120.619 83.7712 119.611 80.5958V80.5657L119.635 80.3884C119.967 80.0538 121.483 79.756 122.959 79.4883C121.167 79.6155 118.97 79.746 117.49 79.746C105.045 79.7686 92.8095 76.5257 81.9898 70.3372L80.8129 69.5642C74.8235 66.3438 67.9747 65.1149 61.2485 66.0538C54.5223 66.9927 48.2643 70.0512 43.3719 74.7907C38.4796 79.5302 35.2042 85.7071 34.0154 92.4358C32.8267 99.1644 33.7858 106.099 36.755 112.245C36.8315 112.342 36.9112 112.436 36.991 112.53C37.7285 114.12 38.6194 115.634 39.6507 117.05C41.2289 119.23 43.1202 121.161 45.2627 122.782L45.3225 123.116C51.0571 127.848 58.2468 130.429 65.6626 130.417C66.1546 130.417 66.66 130.417 67.1288 130.38C67.4612 129.638 67.7538 129.042 67.8402 128.855C68.0264 128.48 68.4619 127.623 68.6514 127.238C73.3904 118.162 80.0937 110.272 88.2667 104.151L88.2867 103.941C82.6112 107.896 76.4168 111.038 69.8815 113.276C68.0774 113.898 66.2389 114.456 64.366 114.949C64.366 114.949 59.5985 116.508 56.0212 116.598C53.1038 116.549 50.2882 115.511 48.0298 113.651C45.7714 111.792 44.2021 109.22 43.5758 106.352C42.9494 103.484 43.3027 100.487 44.5783 97.846C45.8539 95.205 47.9774 93.0742 50.6054 91.7981L50.7783 91.7211L50.9977 91.6208L51.2371 91.5137C55.2474 89.7486 59.5125 88.6405 63.8706 88.2313H65.0675C66.0826 88.2313 67.0922 88.2481 68.0962 88.2815C70.9089 88.3774 73.6849 88.6005 76.4244 88.9507C78.9012 89.3623 85.6802 90.6438 87.8844 91.2393L88.5493 91.4066C90.5009 91.8818 93.8056 92.5811 96.698 93.528L98.3237 94.0299C104.85 95.8969 110.984 95.6627 115.116 93.3674Z" fill="url(#paint28_radial_24_437)"/>
<path d="M153.975 84.989C155.371 86.1334 157.459 86.5349 157.845 85.8088C158.509 84.5608 157.246 83.8849 157.246 83.8849C141.793 72.9187 123.195 67.3503 104.298 68.0318C104.298 68.0318 101.638 68.0083 102.16 69.4069C102.682 70.8055 111.868 71.7123 111.868 71.7123C111.868 71.7123 123.774 71.8194 132.813 74.6367C141.853 77.454 150.913 82.4796 153.975 84.989Z" fill="#CCCCCC"/>
<path d="M156.495 86.1234C141.039 75.1558 122.439 69.5873 103.54 70.2702C111.397 71.7457 119.13 73.8274 126.669 76.4971C128.265 77.0592 129.846 77.647 131.41 78.2604" fill="url(#paint29_linear_24_437)"/>
<path d="M40.9536 39.8219C40.9529 42.5163 40.5643 45.1964 39.8 47.7786C51.1501 41.6319 63.6432 37.92 76.4905 36.8775C70.9039 29.9965 63.8659 24.4528 55.8868 20.6483C47.9077 16.8438 39.1873 14.8738 30.358 14.8812C29.6288 14.8812 28.9063 14.8945 28.1904 14.9213C28.0521 14.9224 27.9179 14.9686 27.8079 15.053C27.698 15.1375 27.6183 15.2556 27.5808 15.3895C27.5433 15.5235 27.5501 15.6661 27.6 15.7959C27.65 15.9256 27.7405 16.0356 27.8579 16.1091C31.8642 18.6147 35.1694 22.1072 37.4609 26.2565C39.7524 30.4058 40.9545 35.0748 40.9536 39.8219Z" fill="url(#paint30_linear_24_437)"/>
<path d="M89.2939 74.0578C91.4549 74.9746 93.6647 75.7876 95.9232 76.497C102.846 78.6572 110.053 79.7525 117.301 79.7459C117.673 79.7459 118.095 79.7459 118.544 79.7225C121.972 81.9843 118.773 85.6883 116.685 87.4182C108.63 93.0594 95.1087 88.6896 87.8975 82.7338C87.8975 82.7338 84.2837 79.3009 86.3848 76.1289C87.1091 75.1428 88.1288 74.4168 89.2939 74.0578Z" fill="url(#paint31_linear_24_437)"/>
<path opacity="0.63" d="M89.9189 82.4026L94.191 79.756L96.4983 85.9226L101.11 82.416L103.666 87.9669L108.341 83.2826L111.998 87.4216L115.386 81.0642L117.553 83.0718C117.553 83.0718 117.463 80.3616 118.477 79.766C118.763 79.5987 119.408 80.4352 119.651 80.7865C121.054 83.0149 118.467 85.9259 116.689 87.3948C108.633 93.0361 95.112 88.6662 87.9008 82.7104C87.9008 82.7104 85.0716 80.0337 85.8795 77.203L89.0179 76.8115L89.9189 82.4026Z" fill="white"/>
<g opacity="0.63">
<path d="M95.9431 76.5003C101.876 78.3523 108.022 79.4208 114.229 79.679L111.991 83.8681L108.334 79.7292L103.66 84.4135L101.103 78.8593L96.4917 82.3658L94.1844 76.1992L89.9122 78.8459L89.1177 73.9675C91.343 74.9222 93.6181 75.7665 95.9431 76.5003Z" fill="white"/>
</g>
<path d="M102.376 58.3787C101.389 56.1397 99.9444 54.1345 98.1375 52.4929C96.3305 50.8513 94.2011 49.6101 91.8872 48.8495" fill="url(#paint32_linear_24_437)"/>
<path opacity="0.25" d="M147.033 60.5301C142.075 56.0545 136.658 52.121 130.875 48.7958C131.723 49.552 138.831 55.5279 139.057 58.4991C139.283 61.4703 112.158 56.6655 96.1994 62.8489C80.2412 69.0322 140.537 70.4709 140.158 71.4413C139.955 71.9528 139.72 72.4512 139.456 72.9336C143.291 70.0238 146.425 66.2818 148.625 61.9856L147.033 60.5301Z" fill="white"/>
<path d="M96.1727 76.5002C91.2577 74.9623 86.5216 72.896 82.0464 70.337C87.9059 64.9873 95.5356 62.0265 103.447 62.0323C103.703 62.0323 103.959 62.0323 104.212 62.0323C105.843 62.0845 107.462 62.3385 109.032 62.7885C110.945 63.3216 112.888 63.7678 114.86 64.1269C126.031 66.2181 137.533 65.637 148.439 62.4305C146.14 66.7641 142.883 70.5086 138.919 73.3755C134.955 76.2424 130.39 78.1551 125.576 78.9662C124.964 79.1402 123.997 79.3008 123.012 79.4882C121.22 79.6153 119.023 79.7458 117.543 79.7458C110.298 79.7535 103.093 78.6593 96.1727 76.5002Z" fill="url(#paint33_linear_24_437)"/>
<path opacity="0.51" d="M88.5226 71.4546C91.3545 72.3546 94.242 73.0665 97.1666 73.586C106.721 75.2557 116.501 75.1081 126.001 73.151C133.614 71.5951 140.962 68.7477 147.375 64.3512C147.761 63.7322 148.123 63.0998 148.469 62.454C137.563 65.6605 126.06 66.2416 114.89 64.1504C112.92 63.7823 110.977 63.3362 109.062 62.812C107.492 62.362 105.873 62.108 104.241 62.0558C103.989 62.0558 103.733 62.0558 103.477 62.0558C96.0763 62.0511 88.9054 64.6409 83.1965 69.3801C84.7957 70.3538 86.7805 70.9025 88.5226 71.4546Z" fill="url(#paint34_radial_24_437)"/>
<path opacity="0.4" d="M114.009 77.1194C108.169 76.862 102.366 76.0407 96.6813 74.6668C93.9385 74.021 91.2256 73.2648 88.5493 72.3714C86.478 71.6788 84.4267 70.9059 82.668 69.5909C82.3821 69.8352 82.0962 70.0828 81.8169 70.3371C92.6365 76.5257 104.872 79.7686 117.317 79.7459C118.797 79.7459 120.994 79.6154 122.79 79.4883C123.787 79.3109 124.738 79.1537 125.35 78.9663C129.095 78.3424 132.699 77.0458 135.988 75.1385C128.777 76.7469 121.39 77.4126 114.009 77.1194Z" fill="url(#paint35_linear_24_437)"/>
<path opacity="0.36" d="M108.168 93.655C101.622 93.1163 95.5345 90.7742 89.3773 88.6361C82.6615 86.2939 75.8028 84.0321 68.6682 83.5235C62.7736 83.1052 56.367 83.7075 51.2438 86.9364C48.8356 88.4552 46.866 90.584 45.5321 93.1096C44.5114 95.0436 43.6869 97.3791 43.8399 99.6175C44.3778 97.9251 45.252 96.3604 46.4093 95.0185C47.5666 93.6766 48.983 92.5855 50.5722 91.8114L50.7451 91.7345L50.9645 91.6341L51.2039 91.527C55.2142 89.7619 59.4793 88.6538 63.8375 88.2446H65.0344C66.0495 88.2446 67.0591 88.2614 68.0631 88.2948C70.8757 88.3907 73.6518 88.6138 76.3913 88.964C78.8681 89.3756 85.6803 90.6437 87.8845 91.2393L88.5494 91.4066C90.501 91.8817 93.8057 92.581 96.6981 93.5279L98.3238 94.0298C104.784 95.8768 110.868 95.6526 114.997 93.4309C112.736 93.7672 110.445 93.8424 108.168 93.655Z" fill="url(#paint36_linear_24_437)"/>
<path opacity="0.43" d="M99.0449 83.9885L96.4982 85.9225L95.3213 82.8041C94.1549 82.3453 93.0303 81.7856 91.9601 81.1311L89.9088 82.4025L89.3802 79.157C88.7004 78.5146 88.0959 77.7961 87.5782 77.0156L86.4512 77.1561C86.7238 80.6091 89.5231 82.9145 92.3956 84.3934C95.7568 86.1233 99.6931 87.2073 103.417 87.7594L103.566 87.7795L102.1 84.5941C101.119 84.4436 100.085 84.2462 99.0449 83.9885Z" fill="white"/>
<path opacity="0.43" d="M106.791 84.835L103.823 87.8129C106.527 88.2132 109.285 88.0515 111.925 87.3378L109.484 84.574C108.592 84.7092 107.693 84.7963 106.791 84.835Z" fill="white"/>
<g opacity="0.18">
<path d="M91.9269 77.2899L92.2228 77.4237L94.191 76.2058L95.092 78.6149C95.4909 78.7654 95.8899 78.9093 96.2955 79.0498C97.3771 79.4179 98.4709 79.7458 99.5769 80.0335L101.11 78.8658L101.897 80.5723C103.161 80.8366 104.438 81.0474 105.717 81.2046L106.748 81.3284L108.341 79.7291L110.023 81.6329C111.047 81.7099 112.074 81.7634 113.101 81.7868L114.229 79.6789C108.022 79.4206 101.876 78.3522 95.9431 76.5002C93.6181 75.7708 91.3451 74.9287 89.1243 73.974L89.4168 75.7541C90.0552 76.4969 91.0525 76.8917 91.9269 77.2899Z" fill="url(#paint37_linear_24_437)"/>
<path d="M104.574 83.3527C104.068 83.2824 103.576 83.2021 103.068 83.1185L103.666 84.4201L104.713 83.3694L104.574 83.3527Z" fill="url(#paint38_linear_24_437)"/>
<path d="M96.136 81.4054L96.4984 82.3724L97.2896 81.7701C96.904 81.653 96.5183 81.5326 96.136 81.4054Z" fill="url(#paint39_linear_24_437)"/>
</g>
<path opacity="0.36" d="M55.7253 82.948C54.3389 82.4662 52.8727 81.9442 51.7623 80.9906H31.9143V87.1238C34.9996 90.6905 41.1933 91.0921 45.3524 89.6065C48.1684 88.6027 50.6718 86.846 53.3083 85.4374L56.992 83.4466V83.3395C56.5664 83.2056 56.1442 83.0818 55.7253 82.948Z" fill="url(#paint40_linear_24_437)"/>
<path opacity="0.15" d="M59.492 39.8722C59.6051 36.4559 57.6668 33.6018 55.17 31.3634C52.1515 28.7175 48.667 26.6645 44.8969 25.3106C42.0178 24.2466 38.8561 23.4402 35.7476 23.5439C38.2106 27.0069 39.8559 30.99 40.5582 35.1897C41.2605 39.3894 41.0013 43.695 39.8003 47.7787C46.0447 44.3994 52.6512 41.7468 59.492 39.8722Z" fill="url(#paint41_linear_24_437)"/>
<path d="M75.8921 112.195C68.3087 115.615 60.1866 117.375 51.9216 118.01C43.7696 117.913 39.4742 110.224 38.5233 107.36C38.3128 106.72 38.1266 106.088 37.9648 105.463C37.597 104.412 37.2895 103.341 37.0439 102.254C36.1197 98.3633 35.7835 94.3544 36.0465 90.3627C36.2074 87.8981 36.5161 85.4455 36.9707 83.0183C34.6251 87.5137 33.3623 92.501 33.2844 97.5779C33.2064 102.655 34.3154 107.679 36.5219 112.245L36.758 112.53C37.4967 114.12 38.3875 115.634 39.4177 117.05L39.6072 117.301C40.184 118.077 40.801 118.822 41.4556 119.533L41.4756 119.556C41.685 119.78 41.8978 120.004 42.1139 120.225L42.2004 120.306C42.3965 120.506 42.596 120.7 42.8021 120.895L42.985 121.062C43.1612 121.222 43.3374 121.396 43.5169 121.544C43.6266 121.644 43.743 121.738 43.8494 121.835C43.9558 121.932 44.112 122.062 44.2483 122.169C44.501 122.377 44.7603 122.578 45.0197 122.775L45.0795 123.11C50.8144 127.841 58.0039 130.422 65.4196 130.41C65.9116 130.41 66.4003 130.41 66.889 130.374C67.2215 129.631 67.5107 129.035 67.5972 128.848L67.657 128.724L67.7302 128.584L67.7501 128.543C67.8399 128.363 67.943 128.155 68.046 127.954L68.4117 127.232C72.1447 120.08 77.1063 113.651 83.0667 108.24C80.7819 109.746 78.383 111.068 75.8921 112.195Z" fill="url(#paint42_linear_24_437)"/>
<path d="M63.3117 176.969C63.3117 176.906 63.3117 176.845 63.3117 176.782C59.1783 161.559 60.395 145.367 66.756 130.942C59.6912 129.457 53.2015 125.776 47.7059 121.092C41.8413 116.103 36.8377 109.782 33.6926 102.706C30.1718 94.7826 29.0382 85.7251 29.2942 77.1092C29.4219 70.8797 30.3551 64.6935 32.0702 58.7065C31.5416 59.63 31.0396 60.5769 30.5741 61.5405C27.4701 67.9462 25.8621 74.9813 25.8731 82.1081C25.8731 83.1766 25.9075 84.235 25.9762 85.2834C26.2263 89.06 26.9295 92.7922 28.0707 96.3987C28.443 97.5698 28.8586 98.7197 29.3174 99.8484C31.1832 104.45 33.7643 108.724 36.964 112.509C38.8398 116.558 41.6773 120.079 45.2258 122.761C45.7799 125.987 46.4016 129.19 47.0909 132.371C49.8811 145.297 53.7685 157.957 58.7104 170.214C60.2087 173.939 61.8012 177.62 63.4879 181.255C63.4148 179.83 63.3549 178.401 63.3084 176.969H63.3117Z" fill="url(#paint43_linear_24_437)"/>
<path d="M54.259 82.0914C55.9446 81.4523 58.0524 81.7568 58.1854 82.5531C58.4148 83.9484 57.0085 84.1859 57.0085 84.1859C38.8853 89.6195 19.4924 88.9284 1.79644 82.2185C1.79644 82.2185 -0.720294 81.3921 0.203952 80.231C1.1282 79.07 10.1379 81.1612 10.1379 81.1612C10.1379 81.1612 21.4416 84.8785 30.9268 85.1127C40.412 85.347 50.562 83.4833 54.259 82.0914Z" fill="#CCCCCC"/>
<path d="M56.3067 81.4357C48.7831 77.3068 30.7403 81.2283 30.7403 81.2283C29.0647 81.3064 27.3814 81.3565 25.6902 81.3789C17.6985 81.4906 9.71008 80.9816 1.79614 79.8564C19.4921 86.5664 38.885 87.2574 57.0082 81.8239L56.3067 81.4357Z" fill="url(#paint44_linear_24_437)"/>
<path d="M100.575 56.3677C99.7464 57.1594 98.6529 57.609 97.5108 57.6274C96.3688 57.6458 95.2615 57.2317 94.4085 56.4672C93.5555 55.7026 93.0191 54.6434 92.9056 53.4995C92.7921 52.3557 93.1098 51.2106 93.7957 50.2914C96.5494 51.6781 98.8885 53.7747 100.575 56.3677Z" fill="#CCCCCC"/>
<path d="M99.9759 55.568C99.5643 55.8824 99.0508 56.0305 98.5363 55.9834C98.0218 55.9363 97.5433 55.6974 97.1948 55.3136C96.8463 54.9297 96.6529 54.4287 96.6526 53.9087C96.6523 53.3887 96.8451 52.8874 97.1931 52.5031C98.3722 53.2609 99.332 54.318 99.9759 55.568Z" fill="#3B2B29"/>
<path opacity="0.43" d="M119.701 80.4519C119.084 80.8888 118.445 81.2921 117.786 81.6598C117.738 82.0762 117.718 82.4954 117.726 82.9146L116.888 82.135C116.047 82.5568 115.181 82.9266 114.295 83.2425L112.217 87.1372C113.369 86.7963 114.477 86.3202 115.518 85.7185C117.301 84.6636 118.889 83.305 120.209 81.7033C120.164 81.3218 120.034 80.9557 119.827 80.6326C119.794 80.5724 119.751 80.5155 119.701 80.4519Z" fill="white"/>
<path opacity="0.11" d="M102.739 57.9202C102.073 56.4597 101.295 55.0535 100.412 53.7143C99.1308 51.7963 97.6025 50.0579 95.8669 48.5448C94.3309 47.2064 92.13 45.5703 89.9624 45.9584C89.068 46.554 89.4105 47.5812 91.8973 48.8493C97.0139 50.539 100.209 53.992 102.386 58.3786C102.403 58.4333 102.423 58.487 102.446 58.5392H102.5L102.716 58.3384C102.716 58.1879 102.726 58.0607 102.739 57.9202Z" fill="white"/>
<path d="M251.777 52.5899C251.777 60.5365 239.809 60.5365 239.809 52.5899C239.809 44.6433 251.777 44.6433 251.777 52.5899ZM240.723 66.0574V104.787H250.863V62.7114L240.723 66.0574Z" fill="#F51F36"/>
<path d="M270.063 46.6508V104.787H260.006V49.9968L270.063 46.6508Z" fill="#F51F36"/>
<path d="M289.014 46.6508V104.787H278.957V49.9968L289.014 46.6508Z" fill="#F51F36"/>
<path d="M308.958 52.5899C308.958 60.5365 296.989 60.5365 296.989 52.5899C296.989 44.6433 308.958 44.6433 308.958 52.5899ZM297.903 66.0574V104.787H308.043V62.7114L297.903 66.0574Z" fill="#F51F36"/>
<path d="M347.357 104.787V83.2055C347.357 76.9319 343.949 72.1639 337.466 72.1639C331.233 72.1639 326.994 77.4338 326.994 83.7074V104.787H316.937V62.7952H325.996L326.661 69.0689C330.817 64.9701 334.973 62.8788 340.126 62.8788C349.767 62.8788 357.497 70.1563 357.497 83.1219V104.787H347.357Z" fill="#F51F36"/>
<path d="M508.604 83.9549C508.604 95.6022 500.698 105.034 487.659 105.034C474.62 105.034 466.794 95.5989 466.794 83.9549C466.794 72.388 474.773 62.8754 487.576 62.8754C500.379 62.8754 508.604 72.3746 508.604 83.9549ZM476.738 83.9549C476.738 90.1082 480.395 95.8498 487.659 95.8498C494.924 95.8498 498.584 90.1082 498.584 83.9549C498.584 77.8854 494.345 71.9798 487.663 71.9798C480.485 71.9798 476.738 77.8854 476.738 83.9549Z" fill="#8C8C8C"/>
<path d="M519.736 104.787V71.7455H512.089V62.7951H519.736V62.7114C519.736 51.6698 527.133 46.5672 535.361 46.5672C538.935 46.5672 542.675 47.7383 546 49.9131L542.26 57.5252C540.099 56.1031 538.104 55.3503 536.026 55.3503C532.535 55.3503 529.876 57.6925 529.876 62.7114V62.7951H541.927V71.7455H529.876V104.787H519.736Z" fill="#8C8C8C"/>
<path d="M434.472 105.289C422.071 105.289 414.245 100.835 410.535 91.6742L410.422 91.3965L419.531 86.6452L419.664 86.9798C421.779 92.2664 427.367 95.425 434.625 95.425C445.889 95.425 446.763 89.4023 446.763 87.572C446.763 83.2859 442.757 80.7664 434.512 79.8763C423.295 78.538 412.922 75.5634 412.922 63.0228C412.922 51.9242 423.627 46.8752 434.236 46.7915C444.848 46.7915 452.315 50.6026 455.846 57.8098L455.989 58.1042L447.295 62.6045L447.136 62.3369C445.384 59.3958 440.486 56.4179 434.565 56.4179C427.843 56.4179 423.664 59.0678 423.664 63.3339C423.664 67.6 428.378 69.0221 435.456 69.8619C446.95 71.2906 457.585 74.4224 457.585 87.572C457.572 100.635 445.64 105.289 434.472 105.289Z" fill="#8C8C8C"/>
<path d="M214.848 69.2429C215.956 67.1622 216.536 64.8381 216.537 62.4774C216.537 53.8247 208.81 46.8116 199.279 46.8116C198.893 46.8116 198.514 46.8116 198.135 46.8484H182.29V104.83H214.259V104.693C223.781 104.693 231.498 96.7433 231.498 86.9597C231.498 77.3936 224.097 69.5708 214.848 69.2429ZM193.447 57.6525H200.333C202.088 57.7364 203.743 58.4987 204.954 59.7807C206.165 61.0627 206.837 62.7655 206.831 64.5341C206.825 66.3027 206.141 68.0008 204.922 69.2745C203.703 70.5481 202.042 71.2991 200.286 71.3709V71.2973H193.447V57.6525ZM213.664 93.7888V93.7119H193.447V80.0503H213.727C215.471 80.1511 217.11 80.9207 218.307 82.2008C219.504 83.4809 220.167 85.174 220.161 86.9317C220.156 88.6894 219.48 90.3779 218.275 91.6498C217.069 92.9216 215.425 93.6799 213.681 93.7687L213.664 93.7888Z" fill="#F51F36"/>
<path d="M398.39 60.0347L405.871 65.7229L401.299 71.5783C404.458 75.1752 405.621 79.274 405.621 83.791C405.621 88.8936 403.71 96.0874 396.977 99.1824C403.793 102.612 405.455 107.547 405.455 112.817C405.455 124.193 396.811 131.22 384.926 131.22C373.04 131.22 364.147 123.942 364.147 112.817H374.204C374.204 118.171 379.108 121.684 384.926 121.684C390.744 121.684 395.315 118.505 395.315 112.817C395.315 107.129 389.996 104.536 384.926 104.536C372.126 104.536 364.147 96.6729 364.147 83.791C364.147 70.9091 373.456 62.8788 384.926 62.8788C388.167 62.8788 391.492 63.297 394.318 65.221L398.39 60.0347ZM374.204 83.791C374.204 90.9848 379.024 95.2509 384.926 95.2509C390.744 95.2509 395.564 90.9012 395.564 83.791C395.564 76.6809 390.744 72.1638 384.926 72.1638C379.024 72.1638 374.204 76.5972 374.204 83.791Z" fill="#F51F36"/>
<defs>
<linearGradient id="paint0_linear_24_437" x1="141.607" y1="77.3101" x2="18.9804" y2="126.799" gradientUnits="userSpaceOnUse">
<stop offset="0.42" stop-color="#F51F36"/>
<stop offset="0.62" stop-color="#D51F36"/>
<stop offset="0.81" stop-color="#B71D37"/>
<stop offset="1" stop-color="#A51B38"/>
</linearGradient>
<linearGradient id="paint1_linear_24_437" x1="48.4776" y1="158.128" x2="99.1032" y2="101.328" gradientUnits="userSpaceOnUse">
<stop offset="0.15" stop-color="#FF2715"/>
<stop offset="0.5" stop-color="#FF5428"/>
<stop offset="1" stop-color="#FF9C42"/>
</linearGradient>
<linearGradient id="paint2_linear_24_437" x1="123.927" y1="202.094" x2="66.8267" y2="66.2907" gradientUnits="userSpaceOnUse">
<stop offset="0.19" stop-color="#EAF0F0"/>
<stop offset="0.46" stop-color="#E4EAEA"/>
<stop offset="1" stop-color="#B5B5B5"/>
</linearGradient>
<radialGradient id="paint3_radial_24_437" cx="0" cy="0" r="1" gradientUnits="userSpaceOnUse" gradientTransform="translate(54.432 50.4254) scale(67.3636 67.7957)">
<stop stop-color="white"/>
<stop offset="1" stop-color="#494949" stop-opacity="0"/>
</radialGradient>
<linearGradient id="paint4_linear_24_437" x1="103.543" y1="78.1667" x2="156.498" y2="78.1667" gradientUnits="userSpaceOnUse">
<stop stop-color="#F2445E"/>
<stop offset="0.42" stop-color="#F51F36"/>
<stop offset="0.62" stop-color="#D51F36"/>
<stop offset="0.81" stop-color="#B71D37"/>
<stop offset="1" stop-color="#A51B38"/>
</linearGradient>
<linearGradient id="paint5_linear_24_437" x1="78.3224" y1="24.8387" x2="25.0478" y2="32.5642" gradientUnits="userSpaceOnUse">
<stop stop-color="#F2445E"/>
<stop offset="0.42" stop-color="#F51F36"/>
<stop offset="0.62" stop-color="#D51F36"/>
<stop offset="0.81" stop-color="#B71D37"/>
<stop offset="1" stop-color="#A51B38"/>
</linearGradient>
<linearGradient id="paint6_linear_24_437" x1="102.679" y1="81.9375" x2="100.214" y2="101.665" gradientUnits="userSpaceOnUse">
<stop stop-color="#5E5E5E"/>
<stop offset="1"/>
</linearGradient>
<linearGradient id="paint7_linear_24_437" x1="96.3455" y1="54.126" x2="108.045" y2="46.619" gradientUnits="userSpaceOnUse">
<stop stop-color="#813301"/>
<stop offset="0.58" stop-color="#FF2715"/>
<stop offset="0.87" stop-color="#FF5428"/>
<stop offset="1" stop-color="#FF9C42"/>
</linearGradient>
<linearGradient id="paint8_linear_24_437" x1="115.459" y1="52.4462" x2="114.994" y2="82.9612" gradientUnits="userSpaceOnUse">
<stop offset="0.19" stop-color="#EAF0F0"/>
<stop offset="0.46" stop-color="#E4EAEA"/>
<stop offset="1" stop-color="#B5B5B5"/>
</linearGradient>
<radialGradient id="paint9_radial_24_437" cx="0" cy="0" r="1" gradientUnits="userSpaceOnUse" gradientTransform="translate(112.104 55.0293) scale(32.8406 33.0513)">
<stop stop-color="white"/>
<stop offset="1" stop-color="#494949" stop-opacity="0"/>
</radialGradient>
<linearGradient id="paint10_linear_24_437" x1="108.886" y1="72.1071" x2="109.782" y2="96.4586" gradientUnits="userSpaceOnUse">
<stop stop-color="#5E5E5E"/>
<stop offset="1"/>
</linearGradient>
<linearGradient id="paint11_linear_24_437" x1="33.5136" y1="91.4869" x2="122.963" y2="91.4869" gradientUnits="userSpaceOnUse">
<stop stop-color="#5E5E5E"/>
<stop offset="1"/>
</linearGradient>
<linearGradient id="paint12_linear_24_437" x1="89.1243" y1="77.8788" x2="114.229" y2="77.8788" gradientUnits="userSpaceOnUse">
<stop stop-color="#5E5E5E"/>
<stop offset="1"/>
</linearGradient>
<linearGradient id="paint13_linear_24_437" x1="103.068" y1="83.7676" x2="104.713" y2="83.7676" gradientUnits="userSpaceOnUse">
<stop stop-color="#5E5E5E"/>
<stop offset="1"/>
</linearGradient>
<linearGradient id="paint14_linear_24_437" x1="96.136" y1="81.8872" x2="97.2896" y2="81.8872" gradientUnits="userSpaceOnUse">
<stop stop-color="#5E5E5E"/>
<stop offset="1"/>
</linearGradient>
<linearGradient id="paint15_linear_24_437" x1="31.9143" y1="85.6917" x2="56.992" y2="85.6917" gradientUnits="userSpaceOnUse">
<stop stop-color="#5E5E5E"/>
<stop offset="1"/>
</linearGradient>
<linearGradient id="paint16_linear_24_437" x1="48.4609" y1="30.8682" x2="39.0556" y2="40.2135" gradientUnits="userSpaceOnUse">
<stop stop-color="#5E5E5E"/>
<stop offset="1"/>
</linearGradient>
<linearGradient id="paint17_linear_24_437" x1="78.9807" y1="92.9859" x2="20.463" y2="122.283" gradientUnits="userSpaceOnUse">
<stop stop-color="#F2445E"/>
<stop offset="0.42" stop-color="#F51F36"/>
<stop offset="0.62" stop-color="#D51F36"/>
<stop offset="0.81" stop-color="#B71D37"/>
<stop offset="1" stop-color="#A51B38"/>
</linearGradient>
<linearGradient id="paint18_linear_24_437" x1="100.152" y1="115.099" x2="26.3106" y2="121.912" gradientUnits="userSpaceOnUse">
<stop stop-color="#F2445E"/>
<stop offset="0.42" stop-color="#F51F36"/>
<stop offset="0.62" stop-color="#D51F36"/>
<stop offset="0.81" stop-color="#B71D37"/>
<stop offset="1" stop-color="#A51B38"/>
</linearGradient>
<linearGradient id="paint19_linear_24_437" x1="1.79614" y1="82.4964" x2="57.0082" y2="82.4964" gradientUnits="userSpaceOnUse">
<stop stop-color="#F2445E"/>
<stop offset="0.42" stop-color="#F51F36"/>
<stop offset="0.62" stop-color="#D51F36"/>
<stop offset="0.81" stop-color="#B71D37"/>
<stop offset="1" stop-color="#A51B38"/>
</linearGradient>
<radialGradient id="paint20_radial_24_437" cx="0" cy="0" r="1" gradientUnits="userSpaceOnUse" gradientTransform="translate(132.667 21.9278) scale(128.739 129.565)">
<stop offset="0.36" stop-color="#EAF0F0"/>
<stop offset="0.62" stop-color="#E4EAEA"/>
<stop offset="1" stop-color="#B5B5B5"/>
</radialGradient>
<linearGradient id="paint21_linear_24_437" x1="111.213" y1="31.4739" x2="30.8753" y2="102.39" gradientUnits="userSpaceOnUse">
<stop stop-color="#9E9E9E"/>
<stop offset="0.26" stop-color="#939393"/>
<stop offset="0.64" stop-color="#7A7A7A"/>
<stop offset="1" stop-color="#7A7A7A"/>
</linearGradient>
<radialGradient id="paint22_radial_24_437" cx="0" cy="0" r="1" gradientUnits="userSpaceOnUse" gradientTransform="translate(140.211 13.3019) scale(140.276 141.176)">
<stop stop-color="#9E9E9E"/>
<stop offset="0.26" stop-color="#939393"/>
<stop offset="0.64" stop-color="#7A7A7A"/>
<stop offset="1" stop-color="#7A7A7A"/>
</radialGradient>
<radialGradient id="paint23_radial_24_437" cx="0" cy="0" r="1" gradientUnits="userSpaceOnUse" gradientTransform="translate(35.7108 -75.2722) scale(128.739 129.565)">
<stop offset="0.36" stop-color="#EAF0F0"/>
<stop offset="0.62" stop-color="#E4EAEA"/>
<stop offset="1" stop-color="#B5B5B5"/>
</radialGradient>
<radialGradient id="paint24_radial_24_437" cx="0" cy="0" r="1" gradientUnits="userSpaceOnUse" gradientTransform="translate(35.7108 -75.2722) scale(128.739 129.565)">
<stop offset="0.36" stop-color="#EAF0F0"/>
<stop offset="0.62" stop-color="#E4EAEA"/>
<stop offset="1" stop-color="#B5B5B5"/>
</radialGradient>
<linearGradient id="paint25_linear_24_437" x1="141.607" y1="77.3101" x2="18.9804" y2="126.799" gradientUnits="userSpaceOnUse">
<stop offset="0.42" stop-color="#F51F36"/>
<stop offset="0.62" stop-color="#D51F36"/>
<stop offset="0.81" stop-color="#B71D37"/>
<stop offset="1" stop-color="#A51B38"/>
</linearGradient>
<linearGradient id="paint26_linear_24_437" x1="48.4776" y1="158.128" x2="99.1032" y2="101.328" gradientUnits="userSpaceOnUse">
<stop offset="0.15" stop-color="#FF2715"/>
<stop offset="0.5" stop-color="#FF5428"/>
<stop offset="1" stop-color="#FF9C42"/>
</linearGradient>
<linearGradient id="paint27_linear_24_437" x1="123.927" y1="202.094" x2="66.8267" y2="66.2907" gradientUnits="userSpaceOnUse">
<stop offset="0.19" stop-color="#EAF0F0"/>
<stop offset="0.46" stop-color="#E4EAEA"/>
<stop offset="1" stop-color="#B5B5B5"/>
</linearGradient>
<radialGradient id="paint28_radial_24_437" cx="0" cy="0" r="1" gradientUnits="userSpaceOnUse" gradientTransform="translate(54.432 50.4254) scale(67.3636 67.7957)">
<stop stop-color="white"/>
<stop offset="1" stop-color="#494949" stop-opacity="0"/>
</radialGradient>
<linearGradient id="paint29_linear_24_437" x1="103.543" y1="78.1667" x2="156.498" y2="78.1667" gradientUnits="userSpaceOnUse">
<stop stop-color="#F2445E"/>
<stop offset="0.42" stop-color="#F51F36"/>
<stop offset="0.62" stop-color="#D51F36"/>
<stop offset="0.81" stop-color="#B71D37"/>
<stop offset="1" stop-color="#A51B38"/>
</linearGradient>
<linearGradient id="paint30_linear_24_437" x1="78.3224" y1="24.8387" x2="25.0478" y2="32.5642" gradientUnits="userSpaceOnUse">
<stop stop-color="#F2445E"/>
<stop offset="0.42" stop-color="#F51F36"/>
<stop offset="0.62" stop-color="#D51F36"/>
<stop offset="0.81" stop-color="#B71D37"/>
<stop offset="1" stop-color="#A51B38"/>
</linearGradient>
<linearGradient id="paint31_linear_24_437" x1="102.679" y1="81.9375" x2="100.214" y2="101.665" gradientUnits="userSpaceOnUse">
<stop stop-color="#5E5E5E"/>
<stop offset="1"/>
</linearGradient>
<linearGradient id="paint32_linear_24_437" x1="96.3455" y1="54.126" x2="108.045" y2="46.619" gradientUnits="userSpaceOnUse">
<stop stop-color="#813301"/>
<stop offset="0.58" stop-color="#FF2715"/>
<stop offset="0.87" stop-color="#FF5428"/>
<stop offset="1" stop-color="#FF9C42"/>
</linearGradient>
<linearGradient id="paint33_linear_24_437" x1="115.459" y1="52.4462" x2="114.994" y2="82.9612" gradientUnits="userSpaceOnUse">
<stop offset="0.19" stop-color="#EAF0F0"/>
<stop offset="0.46" stop-color="#E4EAEA"/>
<stop offset="1" stop-color="#B5B5B5"/>
</linearGradient>
<radialGradient id="paint34_radial_24_437" cx="0" cy="0" r="1" gradientUnits="userSpaceOnUse" gradientTransform="translate(112.104 55.0293) scale(32.8406 33.0513)">
<stop stop-color="white"/>
<stop offset="1" stop-color="#494949" stop-opacity="0"/>
</radialGradient>
<linearGradient id="paint35_linear_24_437" x1="108.886" y1="72.1071" x2="109.782" y2="96.4586" gradientUnits="userSpaceOnUse">
<stop stop-color="#5E5E5E"/>
<stop offset="1"/>
</linearGradient>
<linearGradient id="paint36_linear_24_437" x1="33.5136" y1="91.4869" x2="122.963" y2="91.4869" gradientUnits="userSpaceOnUse">
<stop stop-color="#5E5E5E"/>
<stop offset="1"/>
</linearGradient>
<linearGradient id="paint37_linear_24_437" x1="89.1243" y1="77.8788" x2="114.229" y2="77.8788" gradientUnits="userSpaceOnUse">
<stop stop-color="#5E5E5E"/>
<stop offset="1"/>
</linearGradient>
<linearGradient id="paint38_linear_24_437" x1="103.068" y1="83.7676" x2="104.713" y2="83.7676" gradientUnits="userSpaceOnUse">
<stop stop-color="#5E5E5E"/>
<stop offset="1"/>
</linearGradient>
<linearGradient id="paint39_linear_24_437" x1="96.136" y1="81.8872" x2="97.2896" y2="81.8872" gradientUnits="userSpaceOnUse">
<stop stop-color="#5E5E5E"/>
<stop offset="1"/>
</linearGradient>
<linearGradient id="paint40_linear_24_437" x1="31.9143" y1="85.6917" x2="56.992" y2="85.6917" gradientUnits="userSpaceOnUse">
<stop stop-color="#5E5E5E"/>
<stop offset="1"/>
</linearGradient>
<linearGradient id="paint41_linear_24_437" x1="48.4609" y1="30.8682" x2="39.0556" y2="40.2135" gradientUnits="userSpaceOnUse">
<stop stop-color="#5E5E5E"/>
<stop offset="1"/>
</linearGradient>
<linearGradient id="paint42_linear_24_437" x1="78.9807" y1="92.9859" x2="20.463" y2="122.283" gradientUnits="userSpaceOnUse">
<stop stop-color="#F2445E"/>
<stop offset="0.42" stop-color="#F51F36"/>
<stop offset="0.62" stop-color="#D51F36"/>
<stop offset="0.81" stop-color="#B71D37"/>
<stop offset="1" stop-color="#A51B38"/>
</linearGradient>
<linearGradient id="paint43_linear_24_437" x1="100.152" y1="115.099" x2="26.3106" y2="121.912" gradientUnits="userSpaceOnUse">
<stop stop-color="#F2445E"/>
<stop offset="0.42" stop-color="#F51F36"/>
<stop offset="0.62" stop-color="#D51F36"/>
<stop offset="0.81" stop-color="#B71D37"/>
<stop offset="1" stop-color="#A51B38"/>
</linearGradient>
<linearGradient id="paint44_linear_24_437" x1="1.79614" y1="82.4964" x2="57.0082" y2="82.4964" gradientUnits="userSpaceOnUse">
<stop stop-color="#F2445E"/>
<stop offset="0.42" stop-color="#F51F36"/>
<stop offset="0.62" stop-color="#D51F36"/>
<stop offset="0.81" stop-color="#B71D37"/>
<stop offset="1" stop-color="#A51B38"/>
</linearGradient>
</defs>
</svg>
